<svg version="1.1" id="Layer_1" xmlns="http://www.w3.org/2000/svg" xmlns:xlink="http://www.w3.org/1999/xlink" x="0px" y="0px"
	 width="100%" viewBox="0 0 500 500" enable-background="new 0 0 500 500" xml:space="preserve">
<path fill="#FFFFFF" opacity="1.000000" stroke="none" 
	d="
M315.000000,501.000000 
	C210.000031,501.000000 105.500053,501.000000 1.000056,501.000000 
	C1.000037,334.333405 1.000037,167.666794 1.000019,1.000146 
	C167.666565,1.000097 334.333130,1.000097 500.999756,1.000049 
	C500.999847,167.666519 500.999847,334.333038 500.999939,500.999786 
	C439.166656,501.000000 377.333344,501.000000 315.000000,501.000000 
M207.988510,154.080276 
	C207.988510,147.155777 207.988510,140.231293 207.988510,133.191681 
	C193.150528,133.191681 178.780304,133.191681 164.328552,133.191681 
	C164.328552,147.882736 164.328552,162.372101 164.328552,176.833038 
	C175.442047,176.833038 186.224457,176.833038 197.920700,176.992706 
	C201.163788,176.992706 204.406876,176.992706 207.833160,176.992706 
	C207.833160,169.395142 207.833160,162.201035 207.988510,154.080276 
M253.500000,419.001709 
	C318.253387,419.001709 383.006775,419.001709 447.692444,419.001709 
	C447.692444,403.673035 447.692444,388.935974 447.692444,373.812744 
	C391.174011,373.812744 334.963867,373.812744 278.044769,373.812744 
	C279.067657,372.671692 279.581207,372.075714 280.118896,371.502319 
	C330.837219,317.413483 381.287476,263.068329 432.516327,209.467331 
	C442.197266,199.338165 447.825867,189.529648 445.834717,175.423721 
	C444.899323,168.797165 445.674500,161.929169 445.674500,155.294006 
	C366.359161,155.294006 287.779633,155.294006 208.802917,155.294006 
	C208.802917,162.999207 208.802917,170.415619 208.802917,178.201172 
	C204.822159,178.201172 201.231537,178.201172 197.651993,178.201172 
	C197.651993,185.664536 197.651993,192.735596 197.651993,200.170380 
	C251.216583,200.170380 304.449432,200.170380 358.453705,200.170380 
	C356.894165,201.961700 355.874756,203.187393 354.798492,204.360962 
	C301.418671,262.567902 248.030579,320.767303 194.673889,378.995453 
	C193.596924,380.170807 192.135178,381.663544 192.112015,383.029572 
	C191.909897,394.951843 191.995239,406.878937 191.995239,419.001709 
	C212.543167,419.001709 232.521576,419.001709 253.500000,419.001709 
M107.501595,47.999489 
	C102.073692,47.999489 96.645798,47.999489 91.290207,47.999489 
	C91.290207,67.312683 91.290207,86.043694 91.290207,104.707947 
	C110.314804,104.707947 129.045258,104.707947 147.708130,104.707947 
	C147.708130,85.683060 147.708130,66.951813 147.708130,47.999489 
	C134.443710,47.999489 121.472466,47.999489 107.501595,47.999489 
M82.421600,176.000000 
	C84.522552,176.000000 86.623512,176.000000 88.723053,176.000000 
	C88.723053,161.722839 88.723053,148.003906 88.723053,134.285767 
	C74.726372,134.285767 61.008396,134.285767 47.280949,134.285767 
	C47.280949,148.290787 47.280949,162.007065 47.280949,176.000000 
	C58.857635,176.000000 70.146904,176.000000 82.421600,176.000000 
M156.496552,214.996811 
	C147.747040,214.996811 138.997513,214.996811 130.296478,214.996811 
	C130.296478,229.323395 130.296478,243.039490 130.296478,256.706970 
	C144.313370,256.706970 158.030640,256.706970 171.699219,256.706970 
	C171.699219,242.694504 171.699219,228.977249 171.699219,214.996811 
	C166.763657,214.996811 162.129349,214.996811 156.496552,214.996811 
M92.998276,252.392181 
	C92.998276,244.652313 92.998276,236.912445 92.998276,229.340393 
	C82.931274,229.340393 73.545807,229.340393 64.336327,229.340393 
	C64.336327,239.071045 64.336327,248.457138 64.336327,257.838013 
	C73.940117,257.838013 83.205048,257.838013 92.796173,257.838013 
	C92.867882,256.251526 92.933090,254.808914 92.998276,252.392181 
M32.313148,132.000687 
	C33.209381,131.211914 34.823849,130.470825 34.879921,129.626266 
	C35.150620,125.549065 35.001846,121.443993 35.001846,117.247055 
	C29.778654,117.247055 25.062939,117.247055 20.254982,117.247055 
	C20.254982,122.214348 20.254982,126.927002 20.254982,132.001068 
	C24.120451,132.001068 27.735403,132.001068 32.313148,132.000687 
M87.282333,299.991913 
	C87.853813,299.218628 88.867805,298.473053 88.918327,297.667114 
	C89.112137,294.575439 88.996780,291.464355 88.996780,288.235168 
	C84.812843,288.235168 81.093910,288.235168 77.248337,288.235168 
	C77.248337,292.194214 77.248337,295.913055 77.248337,300.000275 
	C80.438988,300.000275 83.386559,300.000275 87.282333,299.991913 
M143.087173,168.744385 
	C143.087173,171.472946 143.087173,174.201523 143.087173,176.796555 
	C146.361984,176.796555 148.969055,176.796555 151.784637,176.796555 
	C151.784637,173.868515 151.784637,171.144501 151.784637,168.085205 
	C148.975021,168.085205 146.366852,168.085205 143.087173,168.744385 
z"/>
<path fill="#010101" opacity="1.000000" stroke="none" 
	d="
M253.000000,419.001709 
	C232.521576,419.001709 212.543167,419.001709 191.995239,419.001709 
	C191.995239,406.878937 191.909897,394.951843 192.112015,383.029572 
	C192.135178,381.663544 193.596924,380.170807 194.673889,378.995453 
	C248.030579,320.767303 301.418671,262.567902 354.798492,204.360962 
	C355.874756,203.187393 356.894165,201.961700 358.453705,200.170380 
	C304.449432,200.170380 251.216583,200.170380 197.651993,200.170380 
	C197.651993,192.735596 197.651993,185.664536 197.651993,178.201172 
	C201.231537,178.201172 204.822159,178.201172 208.802917,178.201172 
	C208.802917,170.415619 208.802917,162.999207 208.802917,155.294006 
	C287.779633,155.294006 366.359161,155.294006 445.674500,155.294006 
	C445.674500,161.929169 444.899323,168.797165 445.834717,175.423721 
	C447.825867,189.529648 442.197266,199.338165 432.516327,209.467331 
	C381.287476,263.068329 330.837219,317.413483 280.118896,371.502319 
	C279.581207,372.075714 279.067657,372.671692 278.044769,373.812744 
	C334.963867,373.812744 391.174011,373.812744 447.692444,373.812744 
	C447.692444,388.935974 447.692444,403.673035 447.692444,419.001709 
	C383.006775,419.001709 318.253387,419.001709 253.000000,419.001709 
z"/>
<path fill="#191919" opacity="1.000000" stroke="none" 
	d="
M108.001404,47.999489 
	C121.472466,47.999489 134.443710,47.999489 147.708130,47.999489 
	C147.708130,66.951813 147.708130,85.683060 147.708130,104.707947 
	C129.045258,104.707947 110.314804,104.707947 91.290207,104.707947 
	C91.290207,86.043694 91.290207,67.312683 91.290207,47.999489 
	C96.645798,47.999489 102.073692,47.999489 108.001404,47.999489 
z"/>
<path fill="#303030" opacity="1.000000" stroke="none" 
	d="
M81.928886,176.000000 
	C70.146904,176.000000 58.857635,176.000000 47.280949,176.000000 
	C47.280949,162.007065 47.280949,148.290787 47.280949,134.285767 
	C61.008396,134.285767 74.726372,134.285767 88.723053,134.285767 
	C88.723053,148.003906 88.723053,161.722839 88.723053,176.000000 
	C86.623512,176.000000 84.522552,176.000000 81.928886,176.000000 
z"/>
<path fill="#333333" opacity="1.000000" stroke="none" 
	d="
M156.995789,214.996811 
	C162.129349,214.996811 166.763657,214.996811 171.699219,214.996811 
	C171.699219,228.977249 171.699219,242.694504 171.699219,256.706970 
	C158.030640,256.706970 144.313370,256.706970 130.296478,256.706970 
	C130.296478,243.039490 130.296478,229.323395 130.296478,214.996811 
	C138.997513,214.996811 147.747040,214.996811 156.995789,214.996811 
z"/>
<path fill="#0A0A0A" opacity="1.000000" stroke="none" 
	d="
M197.006866,176.833038 
	C186.224457,176.833038 175.442047,176.833038 164.328552,176.833038 
	C164.328552,162.372101 164.328552,147.882736 164.328552,133.191681 
	C178.780304,133.191681 193.150528,133.191681 207.988510,133.191681 
	C207.988510,140.231293 207.988510,147.155777 207.467087,154.541626 
	C205.780701,155.001923 204.596573,155.137115 203.454102,154.976257 
	C198.462128,154.273453 196.515411,156.225174 196.914307,161.362473 
	C197.312531,166.490799 197.004990,171.673935 197.006866,176.833038 
z"/>
<path fill="#383838" opacity="1.000000" stroke="none" 
	d="
M92.998291,252.879242 
	C92.933090,254.808914 92.867882,256.251526 92.796173,257.838013 
	C83.205048,257.838013 73.940117,257.838013 64.336327,257.838013 
	C64.336327,248.457138 64.336327,239.071045 64.336327,229.340393 
	C73.545807,229.340393 82.931274,229.340393 92.998276,229.340393 
	C92.998276,236.912445 92.998276,244.652313 92.998291,252.879242 
z"/>
<path fill="#010101" opacity="1.000000" stroke="none" 
	d="
M197.463776,176.912872 
	C197.004990,171.673935 197.312531,166.490799 196.914307,161.362473 
	C196.515411,156.225174 198.462128,154.273453 203.454102,154.976257 
	C204.596573,155.137115 205.780701,155.001923 207.389404,155.004974 
	C207.833160,162.201035 207.833160,169.395142 207.833160,176.992706 
	C204.406876,176.992706 201.163788,176.992706 197.463776,176.912872 
z"/>
<path fill="#383838" opacity="1.000000" stroke="none" 
	d="
M31.831751,132.000885 
	C27.735403,132.001068 24.120451,132.001068 20.254982,132.001068 
	C20.254982,126.927002 20.254982,122.214348 20.254982,117.247055 
	C25.062939,117.247055 29.778654,117.247055 35.001846,117.247055 
	C35.001846,121.443993 35.150620,125.549065 34.879921,129.626266 
	C34.823849,130.470825 33.209381,131.211914 31.831751,132.000885 
z"/>
<path fill="#383838" opacity="1.000000" stroke="none" 
	d="
M86.808228,299.996094 
	C83.386559,300.000275 80.438988,300.000275 77.248337,300.000275 
	C77.248337,295.913055 77.248337,292.194214 77.248337,288.235168 
	C81.093910,288.235168 84.812843,288.235168 88.996780,288.235168 
	C88.996780,291.464355 89.112137,294.575439 88.918327,297.667114 
	C88.867805,298.473053 87.853813,299.218628 86.808228,299.996094 
z"/>
<path fill="#383838" opacity="1.000000" stroke="none" 
	d="
M143.422913,168.414795 
	C146.366852,168.085205 148.975021,168.085205 151.784637,168.085205 
	C151.784637,171.144501 151.784637,173.868515 151.784637,176.796555 
	C148.969055,176.796555 146.361984,176.796555 143.087173,176.796555 
	C143.087173,174.201523 143.087173,171.472946 143.422913,168.414795 
z"/>
</svg>